<svg viewBox="0 0 614 700" fill="none" xmlns="http://www.w3.org/2000/svg">
<path fill-rule="evenodd" clip-rule="evenodd" d="M307.325 0H305.7C299.169 3.03222 292.94 6.65382 286.708 10.2773C284.925 11.3143 283.141 12.3515 281.35 13.375C190.983 65.4083 100.617 117.408 10.25 169.375C7.1545 170.888 4.58058 173.29 2.85718 176.274C1.13379 179.258 0.339202 182.687 0.574981 186.125V515.2C0.411181 518.653 1.2735 522.076 3.05317 525.04C4.83284 528.003 7.45015 530.372 10.575 531.85C106.725 587.283 202.967 642.617 299.3 697.85C301.817 699.354 304.727 700.07 307.654 699.905C310.582 699.741 313.393 698.703 315.725 696.925C411.958 641.592 508.183 586.225 604.4 530.825C608.923 527.94 612.122 523.384 613.3 518.15C613.356 468.987 613.347 419.818 613.337 370.645C613.326 310.121 613.315 249.589 613.425 189.05C613.872 185.107 613.125 181.121 611.279 177.608C609.434 174.096 606.576 171.219 603.075 169.35C512.592 117.283 422.108 65.2333 331.625 13.2C323.764 8.37279 315.653 3.96658 307.325 0ZM126.175 484.925V213.45C126.559 204.021 130.308 195.043 136.743 188.14C143.177 181.238 151.872 176.869 161.25 175.825C173.63 173.924 186.293 175.358 197.934 179.981C209.575 184.604 219.772 192.248 227.475 202.125C250.408 229.366 273.264 256.66 296.116 283.951C331.485 326.189 366.846 368.418 402.475 410.425C402.208 366.079 402.297 321.755 402.386 277.416C402.431 255.241 402.475 233.062 402.475 210.875C403.336 201.019 407.859 191.843 415.153 185.159C422.447 178.474 431.981 174.766 441.875 174.766C451.769 174.766 461.303 178.474 468.597 185.159C475.891 191.843 480.414 201.019 481.275 210.875C481.408 303.208 481.408 395.55 481.275 487.9C480.416 496.208 476.914 504.021 471.285 510.19C465.655 516.36 458.195 520.561 450 522.175C438.395 524.619 426.362 524.11 415.005 520.694C403.649 517.278 393.331 511.065 385 502.625C325.033 431.325 265.192 359.925 205.475 288.425C205.392 332.092 205.419 375.758 205.447 419.425C205.461 441.258 205.475 463.092 205.475 484.925C205.472 491.301 203.911 497.58 200.926 503.214C197.941 508.848 193.624 513.667 188.35 517.25C180.471 522.411 171.062 524.715 161.69 523.778C152.318 522.841 143.551 518.719 136.85 512.1C133.354 508.507 130.61 504.253 128.777 499.587C126.944 494.921 126.06 489.937 126.175 484.925Z" fill="white"/>
</svg>
